<?xml version="1.0" encoding="utf-8"?>
<!-- Generator: Adobe Illustrator 24.2.0, SVG Export Plug-In . SVG Version: 6.00 Build 0)  -->
<svg version="1.1" id="Layer_1" xmlns="http://www.w3.org/2000/svg" xmlns:xlink="http://www.w3.org/1999/xlink" x="0px" y="0px"
	 viewBox="0 0 44 44" style="enable-background:new 0 0 44 44;" xml:space="preserve">
<style type="text/css">
	.st0{fill:#283895;}
	.st1{fill:#FFFFFF;}
	.st2{fill:#F9E100;}
	.st3{clip-path:url(#SVGID_1_);fill-rule:evenodd;clip-rule:evenodd;fill:#010101;}
	.st4{fill:#010101;}
</style>
<path class="st0" d="M124.7-48.6h-17.5v2.3h17.5V-48.6z"/>
<path class="st0" d="M80-58.7v12.3h3v-5h2.5v-2.5h-2.6v-4.8H80z"/>
<path class="st0" d="M68.8-35.4v-10H83v10.1L68.8-35.4z M80.1-37.8V-43h-8.4v5.2H80.1z"/>
<path class="st0" d="M103.4-58.7v12.3h-3v-5h-3.9v-2.5h3.9v-4.8H103.4z"/>
<path class="st0" d="M95.9-34.7c-4.3,0-7.9-2.5-7.9-5.7c0-3.2,3.5-5.7,7.9-5.7c4.4,0,7.9,2.5,7.9,5.7
	C103.8-37.2,100.3-34.7,95.9-34.7z M100.8-40.4c0-1.8-2.2-3.2-4.9-3.2c-2.7,0-4.9,1.4-4.9,3.2s2.2,3.2,4.9,3.2
	C98.6-37.2,100.8-38.7,100.8-40.4z"/>
<path class="st0" d="M72.9-58.3c0,0-0.4,6.7,5,9.4l-1.5,2.1c0,0-3.9-2.6-4.8-5.5c-0.9,2.8-4.8,5.5-4.8,5.5l-1.6-2.1
	c5.4-2.8,5-9.4,5-9.4H72.9z"/>
<path class="st0" d="M91.5-52.2C90.6-49.4,87-47,87-47l-1.6-2.1c5-2.5,4.7-9.2,4.7-9.2h2.8c0,0-0.4,6.7,4.7,9.2L96.1-47
	C96-47,92.3-49.3,91.5-52.2z"/>
<path class="st0" d="M140.2-58.7v15.1h3v-7.8h2.6v-2.5h-2.6v-4.8H140.2z"/>
<path class="st0" d="M133-58.3c0,0-0.4,6.7,5,9.4l-1.6,2.1c0,0-3.9-2.6-4.8-5.5c-0.9,2.8-4.8,5.5-4.8,5.5l-1.6-2.1
	c5.4-2.8,5-9.4,5-9.4H133z"/>
<path class="st0" d="M129.4-45.4h2.9v10.1h-2.9V-45.4z"/>
<path class="st0" d="M131-37.9h12.2v2.5H131V-37.9z"/>
<path class="st0" d="M114.6-46.5h2.7v2h-2.7V-46.5z"/>
<path class="st0" d="M108.9-58.1h14.2v2.3h-14.2V-58.1z"/>
<path class="st0" d="M108.9-52.3h14.2v2.3h-14.2V-52.3z"/>
<path class="st0" d="M108.9-44.9h14.2v2.3h-14.2V-44.9z"/>
<path class="st0" d="M108.9-41.5h14.2v2.3h-14.2V-41.5z"/>
<path class="st0" d="M108.9-37.6h14.2v2.3h-14.2V-37.6z"/>
<path class="st0" d="M120.2-43.9h2.9v4.8h-2.9V-43.9z"/>
<path class="st0" d="M120.2-56.1h2.9v4.8h-2.9V-56.1z"/>
<path class="st0" d="M108.9-40.9h2.9v4.7h-2.9V-40.9z"/>
<path class="st0" d="M108.9-56.5h2.9v4.8h-2.9V-56.5z"/>
<path class="st0" d="M41.1-60.6C42.9-50.5,15.3-37.2-20.5-31s-66.2,3-67.9-7.1c-1.7-10.1,25.8-23.4,61.5-29.6S39.3-70.8,41.1-60.6z"
	/>
<path class="st1" d="M-64-46.5c0.1,0.3,0.1,0.7,0,1c-0.1,0.6-0.7,1-1.3,0.9c-0.7,0.1-1.3-0.4-1.3-1c0-0.1,0-0.1,0-0.2v-1.3h-3.6v1
	c0,3,2.4,3.9,4.9,3.9c2.4,0,4.4-0.8,4.7-3.1c0.1-0.7,0.1-1.5,0-2.2c-0.6-2.8-5.7-3.6-6-5.2c-0.1-0.2-0.1-0.5,0-0.7
	c0.1-0.6,0.6-1,1.2-0.9c0.6-0.1,1.2,0.4,1.2,1c0,0.1,0,0.1,0,0.2v0.8h3.3v-0.9c0-2.9-2.6-3.4-4.5-3.4c-2.4,0-4.3,0.8-4.7,3
	c-0.1,0.6-0.1,1.2,0,1.8C-69.5-49-64.7-48.3-64-46.5z"/>
<path class="st1" d="M-20.4-46.5c0.1,0.3,0.1,0.7,0,1c-0.1,0.6-0.7,1-1.3,0.9c-0.6,0.1-1.2-0.4-1.3-1c0-0.1,0-0.1,0-0.2v-1.3h-3.6v1
	c0,3,2.3,3.9,4.8,3.9c2.4,0,4.4-0.8,4.7-3c0.1-0.7,0.1-1.5,0-2.2c-0.6-2.8-5.6-3.6-6-5.2c-0.1-0.2-0.1-0.5,0-0.7
	c0.1-0.6,0.6-1,1.2-0.9c0.6-0.1,1.2,0.4,1.2,1c0,0.1,0,0.1,0,0.2v0.8h3.3v-0.9c0-2.9-2.6-3.3-4.5-3.3c-2.4,0-4.3,0.8-4.6,2.9
	c-0.1,0.6-0.1,1.2,0,1.8C-25.8-49-21.1-48.3-20.4-46.5z"/>
<path class="st1" d="M7.4-45.4L7.2-56.2h3.3v13.3H5.7L2.3-54l0.3,11.1h-3.3v-13.2h5L7.4-45.4z"/>
<path class="st1" d="M-52.9-55.2l-1.9,12.4h-3.6l2.5-13.4h6l2.5,13.4H-51L-52.9-55.2z"/>
<path class="st1" d="M-33.3-55.2l-2.3,12.4H-39l-2.3-12.4l-0.1,12.4h-3.4l0.3-13.3h5.5l1.7,10.5l1.7-10.5h5.5l0.3,13.4h-3.4
	L-33.3-55.2z"/>
<path class="st1" d="M-9.2-44.7c0.6,0.1,1.2-0.4,1.3-1c0-0.2,0-0.3,0-0.5v-9.9h3.4v9.6c0,0.2,0,0.8,0,0.9c-0.2,2.5-2.2,3.3-4.7,3.3
	s-4.4-0.8-4.7-3.3c0-0.1,0-0.6,0-0.9v-9.6h3.4v9.9c0,0.2,0,0.3,0,0.5C-10.3-45.1-9.8-44.7-9.2-44.7z"/>
<path class="st1" d="M18.8-44.9c0.6,0.1,1.2-0.3,1.4-1c0-0.2,0-0.3,0-0.5v-1.9h-1.4v-2h4.7v3.6c0,0.3,0,0.4,0,0.9
	c-0.2,2.4-2.3,3.3-4.7,3.3c-2.4,0-4.5-0.9-4.7-3.3c0-0.3,0-0.6,0-0.9v-5.6c0-0.2,0-0.7,0.1-0.9c0.3-2.5,2.3-3.3,4.7-3.3
	s4.5,0.8,4.7,3.3c0,0.4,0,0.9,0,0.9v0.4h-3.4v-0.8c0-0.2,0-0.3,0-0.5c-0.1-0.6-0.7-1-1.3-1c-0.6-0.1-1.2,0.4-1.3,1
	c0,0.2-0.1,0.4-0.1,0.6v6.1c0,0.2,0,0.3,0,0.5C17.6-45.2,18.2-44.8,18.8-44.9z"/>
<path class="st0" d="M124.8,44.3h-34c-2.8,0-5-2.2-5-5v-34c0-2.8,2.2-5,5-5h34c2.8,0,5,2.2,5,5v34C129.8,42.1,127.5,44.3,124.8,44.3
	z"/>
<path class="st2" d="M39,44H5c-2.8,0-5-2.2-5-5V5c0-2.8,2.2-5,5-5h34c2.8,0,5,2.2,5,5v34C44,41.8,41.8,44,39,44z"/>
<path class="st1" d="M110.2,27.6c0.6,1.7-0.6,3.5-2.5,3.5c-1.1,0-2.2-0.6-2.2-1.8c0-0.2,0-0.2,0-0.4v-2.3H99v1.8c0,5.4,4.3,7,8.9,7
	c4.3,0,8-1.4,8.5-5.6c0.2-1.3,0.2-2.7,0-4c-0.1-0.4-0.2-0.8-0.4-1.2c-0.2-0.4-0.5-0.7-0.7-1.1c-0.3-0.3-0.6-0.7-1-1
	c-0.4-0.3-0.7-0.6-1.1-0.9c-0.4-0.3-0.8-0.5-1.2-0.8c-0.4-0.2-0.9-0.5-1.3-0.7c-0.4-0.2-0.8-0.4-1.3-0.7c-0.4-0.2-0.8-0.4-1.2-0.6
	c-0.4-0.2-0.7-0.4-1-0.6c-0.3-0.2-0.6-0.4-0.8-0.6c-1.1-1-1.2-3.1,0.2-3.9c0.7-0.4,2-0.3,2.7,0.2c0.4,0.3,0.7,0.9,0.7,1.4
	c0,0.2,0,0.2,0,0.4v1.4h6v-1.6c0-5.2-4.7-6.1-8.1-6.1c-4.3,0-7.8,1.4-8.5,5.4c-0.2,1.1-0.2,2.2,0,3.3c0.6,2.6,3.1,4.1,5.2,5.3
	c1.1,0.6,2.3,1.2,3.4,1.9c0.8,0.5,1.8,1.2,2.2,2.1C110.2,27.4,110.2,27.5,110.2,27.6z"/>
<g>
	<defs>
		<rect id="SVGID_3_" x="-245.6" y="-227" width="222.7" height="68.1"/>
	</defs>
	<clipPath id="SVGID_1_">
		<use xlink:href="#SVGID_3_"  style="overflow:visible;"/>
	</clipPath>
	<path class="st3" d="M-43.4-200.7c-4.1,0-7.2,1.5-9.3,4.5c-2.2,3-3.2,7.5-3.2,13.3c0,5.8,1.1,10.2,3.2,13.1c2.1,3,5.3,4.4,9.3,4.4
		c4.1,0,7.3-1.5,9.4-4.4c2.1-3,3.2-7.3,3.2-13.1c0-5.8-1.1-10.3-3.2-13.3C-36.2-199.2-39.4-200.7-43.4-200.7z M-43.4-207
		c6.4,0,11.5,2.1,15.1,6.2c3.6,4.2,5.5,10.1,5.5,17.9c0,7.7-1.8,13.5-5.4,17.6c-3.6,4.1-8.7,6.2-15.2,6.2c-6.4,0-11.5-2.1-15.1-6.2
		c-3.6-4.1-5.5-10-5.5-17.6c0-7.8,1.8-13.7,5.5-17.9C-54.8-204.9-49.8-207-43.4-207z"/>
	<path class="st3" d="M-187.2-165.5c1.1,0,2.1-0.2,3.3-0.4c1.1-0.3,2.3-0.6,3.4-1.1c1.1-0.4,2.2-1,3.2-1.7c1-0.6,1.9-1.3,2.7-2.1
		v-10.8h-8.1c-4.1,0-7.1,0.7-9,2.1c-1.9,1.4-2.8,3.6-2.8,6.7C-194.3-168-191.9-165.5-187.2-165.5z M-201.7-172.5
		c0-4.7,1.5-8.2,4.7-10.7c3.1-2.4,7.7-3.7,13.6-3.7h9v-3c0-7.1-3.2-10.7-9.4-10.7c-2,0-4.1,0.3-6.4,0.9c-2.2,0.6-4.3,1.3-6.1,2.1
		l-2.3-5.5c2.3-1.3,4.8-2.3,7.5-3c2.7-0.7,5.3-1.1,7.8-1.1c10.9,0,16.4,5.8,16.4,17.5v29.5h-5.7l-0.9-5.1c-2.3,1.9-4.8,3.3-7.4,4.3
		c-2.6,1-5.1,1.5-7.5,1.5c-4.1,0-7.3-1.2-9.6-3.5C-200.5-165.1-201.7-168.3-201.7-172.5z"/>
	<path class="st3" d="M-124.7-207.4l6.1,4.4l-14.9,18.7l17.3,20.8l-6,4.7l-20.4-25L-124.7-207.4z M-145.5-160.1h-7.8v-65.2l7.8-1.7
		V-160.1z"/>
	<path class="st3" d="M-94.8-165.5c1.1,0,2.2-0.2,3.3-0.4c1.1-0.3,2.3-0.6,3.4-1.1c1.1-0.4,2.2-1,3.2-1.7c1-0.6,1.9-1.3,2.7-2.1
		v-10.8h-8.1c-4.1,0-7.1,0.7-9,2.1c-1.9,1.4-2.8,3.6-2.8,6.7C-101.9-168-99.6-165.5-94.8-165.5z M-109.4-172.5
		c0-4.7,1.6-8.2,4.7-10.7c3.1-2.4,7.7-3.7,13.6-3.7h9v-3c0-7.1-3.2-10.7-9.4-10.7c-2,0-4.1,0.3-6.4,0.9c-2.2,0.6-4.3,1.3-6.1,2.1
		l-2.3-5.5c2.3-1.3,4.8-2.3,7.5-3c2.7-0.7,5.3-1.1,7.8-1.1c10.9,0,16.4,5.8,16.4,17.5v29.5h-5.8l-0.9-5.1c-2.3,1.9-4.8,3.3-7.4,4.3
		s-5.1,1.5-7.5,1.5c-4.1,0-7.3-1.2-9.6-3.5C-108.2-165.1-109.4-168.3-109.4-172.5z"/>
	<path class="st3" d="M-237.8-227l-7.8,1.7v65.3h7.8V-227z M-235-183.9l20.4,25l6-4.7l-17.3-20.8l15-18.7l-6.1-4.4L-235-183.9z"/>
</g>
<g>
	<polygon class="st4" points="14.6,9.1 17.7,8.4 17.7,35.2 14.6,35.2 	"/>
	<polygon class="st4" points="26,16.2 28.5,18 22.5,25.5 29.4,33.8 27,35.6 18.8,25.6 	"/>
</g>
</svg>
