<svg width="28" height="28" viewBox="0 0 28 28" fill="none" xmlns="http://www.w3.org/2000/svg">
<path fill-rule="evenodd" clip-rule="evenodd" d="M23.9602 11.88V9.578C23.9602 5.736 19.5602 3.306 14.1332 3.306C8.70615 3.306 4.30615 5.736 4.30615 9.578V11.88H23.9602Z" stroke="black" stroke-width="1.6" stroke-linejoin="round"/>
<path d="M4.30615 15.414C5.53415 15.414 5.53415 16.594 6.76215 16.594C7.99015 16.594 7.99015 15.414 9.21815 15.414C10.4462 15.414 10.4462 16.594 11.6732 16.594C12.9022 16.594 12.9022 15.414 14.1302 15.414C15.3582 15.414 15.3582 16.594 16.5852 16.594C17.8142 16.594 17.8142 15.414 19.0422 15.414C20.2722 15.414 20.2722 16.594 21.5022 16.594C22.7312 16.594 22.7312 15.414 23.9602 15.414" stroke="black" stroke-width="1.6" stroke-linecap="square" stroke-linejoin="round"/>
<path fill-rule="evenodd" clip-rule="evenodd" d="M14.1332 20.442H4.30615V22.408C4.30615 23.495 5.18715 24.376 6.27315 24.376H21.9932C23.0792 24.376 23.9602 23.495 23.9602 22.408V20.442H14.1332Z" stroke="black" stroke-width="1.6" stroke-linejoin="round"/>
</svg>
