<svg width="45" height="45" viewBox="0 0 45 45" fill="none" xmlns="http://www.w3.org/2000/svg">
<path opacity="0.4" d="M0 19.7143C0 10.4206 -1.95844e-07 5.77464 2.88732 2.88732C5.77382 -1.95844e-07 10.4206 0 19.7143 0H24.6429C33.9365 0 38.5825 -1.95844e-07 41.4698 2.88732C44.3571 5.77382 44.3571 10.4206 44.3571 19.7143V24.6429C44.3571 33.9365 44.3571 38.5825 41.4698 41.4698C38.5833 44.3571 33.9365 44.3571 24.6429 44.3571H19.7143C10.4206 44.3571 5.77464 44.3571 2.88732 41.4698C-1.95844e-07 38.5833 0 33.9365 0 24.6429V19.7143Z" fill="white" fill-opacity="0.01"/>
<path d="M20.6786 15.9267C20.687 15.6007 20.8223 15.291 21.0558 15.0634C21.2893 14.8359 21.6024 14.7085 21.9284 14.7085C22.2545 14.7085 22.5676 14.8359 22.8011 15.0634C23.0345 15.291 23.1699 15.6007 23.1782 15.9267V28.4263C23.1825 28.5932 23.1534 28.7592 23.0925 28.9145C23.0316 29.0699 22.9402 29.2115 22.8237 29.331C22.7073 29.4505 22.568 29.5455 22.4143 29.6103C22.2605 29.6752 22.0953 29.7086 21.9284 29.7086C21.7616 29.7086 21.5964 29.6752 21.4426 29.6103C21.2888 29.5455 21.1496 29.4505 21.0331 29.331C20.9167 29.2115 20.8253 29.0699 20.7644 28.9145C20.7035 28.7592 20.6744 28.5932 20.6786 28.4263V15.9267Z" fill="white" fill-opacity="0.01"/>
<path d="M28.4288 20.6769C28.5957 20.6726 28.7617 20.7018 28.917 20.7627C29.0724 20.8236 29.214 20.915 29.3335 21.0314C29.453 21.1479 29.548 21.2871 29.6128 21.4409C29.6777 21.5947 29.7111 21.7599 29.7111 21.9267C29.7111 22.0936 29.6777 22.2588 29.6128 22.4126C29.548 22.5663 29.453 22.7055 29.3335 22.822C29.214 22.9385 29.0724 23.0299 28.917 23.0908C28.7617 23.1516 28.5957 23.1808 28.4288 23.1765H15.9275C15.6016 23.1682 15.2918 23.0328 15.0643 22.7994C14.8367 22.5659 14.7094 22.2528 14.7094 21.9267C14.7094 21.6007 14.8367 21.2876 15.0643 21.0541C15.2918 20.8206 15.6016 20.6853 15.9275 20.6769H28.4288Z" fill="white" fill-opacity="0.01"/>
</svg>
