<svg width="49" height="49" viewBox="0 0 49 49" fill="none" xmlns="http://www.w3.org/2000/svg">
<path d="M0 21.7778C0 11.5114 -2.16343e-07 6.37907 3.18954 3.18954C6.37817 -2.16343e-07 11.5114 0 21.7778 0H27.2222C37.4886 0 42.6209 -2.16343e-07 45.8105 3.18954C49 6.37817 49 11.5114 49 21.7778V27.2222C49 37.4886 49 42.6209 45.8105 45.8105C42.6218 49 37.4886 49 27.2222 49H21.7778C11.5114 49 6.37907 49 3.18954 45.8105C-2.16343e-07 42.6218 0 37.4886 0 27.2222V21.7778Z" fill="black"/>
<path d="M22.8432 17.5937C22.8525 17.2337 23.002 16.8915 23.2599 16.6401C23.5178 16.3887 23.8637 16.248 24.2238 16.248C24.584 16.248 24.9299 16.3887 25.1878 16.6401C25.4457 16.8915 25.5952 17.2337 25.6045 17.5937V31.4017C25.6092 31.586 25.577 31.7694 25.5097 31.941C25.4425 32.1127 25.3415 32.2691 25.2129 32.4011C25.0842 32.5331 24.9304 32.638 24.7605 32.7097C24.5907 32.7813 24.4082 32.8182 24.2238 32.8182C24.0395 32.8182 23.857 32.7813 23.6872 32.7097C23.5173 32.638 23.3635 32.5331 23.2348 32.4011C23.1062 32.2691 23.0052 32.1127 22.938 31.941C22.8707 31.7694 22.8385 31.586 22.8432 31.4017V17.5937Z" fill="white"/>
<path d="M31.4045 22.8418C31.5888 22.837 31.7722 22.8693 31.9438 22.9365C32.1155 23.0038 32.2719 23.1047 32.4039 23.2334C32.5359 23.362 32.6408 23.5158 32.7125 23.6857C32.7841 23.8556 32.821 24.038 32.821 24.2224C32.821 24.4067 32.7841 24.5892 32.7125 24.7591C32.6408 24.9289 32.5359 25.0827 32.4039 25.2114C32.2719 25.3401 32.1155 25.441 31.9438 25.5083C31.7722 25.5755 31.5888 25.6077 31.4045 25.603H17.5947C17.2347 25.5938 16.8925 25.4443 16.6411 25.1864C16.3897 24.9284 16.249 24.5825 16.249 24.2224C16.249 23.8622 16.3897 23.5163 16.6411 23.2584C16.8925 23.0005 17.2347 22.851 17.5947 22.8418H31.4045Z" fill="white"/>
</svg>
