<svg width="37" height="36" viewBox="0 0 37 36" fill="none" xmlns="http://www.w3.org/2000/svg">
<path fill-rule="evenodd" clip-rule="evenodd" d="M27.7531 17.9141C27.7531 23.127 23.5271 27.3521 18.3151 27.3521C13.1021 27.3521 8.87708 23.127 8.87708 17.9141C8.87708 12.7021 13.1021 8.47705 18.3151 8.47705C23.5271 8.47705 27.7531 12.7021 27.7531 17.9141Z" stroke="black" stroke-width="1.35"/>
<path fill-rule="evenodd" clip-rule="evenodd" d="M22.062 17.9141C22.062 23.127 18.314 27.3521 18.314 27.3521C18.314 27.3521 14.567 23.127 14.567 17.9141C14.567 12.7021 18.314 8.47705 18.314 8.47705C18.314 8.47705 22.062 12.7021 22.062 17.9141Z" stroke="black" stroke-width="1.35" stroke-linejoin="round"/>
<path d="M9.27612 15.0181H27.3521M9.27612 20.8111H27.3521" stroke="black" stroke-width="1.35"/>
</svg>
