<svg width="56" height="56" viewBox="0 0 56 56" fill="none" xmlns="http://www.w3.org/2000/svg">
<g clip-path="url(#clip0_13_2260)">
<path opacity="0.4" d="M1 25C1 13.686 1 8.03 4.515 4.515C8.029 1 13.686 1 25 1H31C42.314 1 47.97 1 51.485 4.515C55 8.029 55 13.686 55 25V31C55 42.314 55 47.97 51.485 51.485C47.971 55 42.314 55 31 55H25C13.686 55 8.03 55 4.515 51.485C1 47.971 1 42.314 1 31V25Z" fill="black"/>
<path d="M26.174 20.389C26.1842 19.9922 26.349 19.6151 26.6332 19.3381C26.9174 19.0611 27.2986 18.906 27.6955 18.906C28.0924 18.906 28.4736 19.0611 28.7579 19.3381C29.0421 19.6151 29.2068 19.9922 29.217 20.389V35.606C29.2222 35.8091 29.1867 36.0112 29.1126 36.2003C29.0385 36.3895 28.9272 36.5619 28.7854 36.7073C28.6436 36.8528 28.4742 36.9684 28.287 37.0474C28.0998 37.1263 27.8987 37.167 27.6955 37.167C27.4924 37.167 27.2913 37.1263 27.1041 37.0474C26.9169 36.9684 26.7474 36.8528 26.6056 36.7073C26.4638 36.5619 26.3526 36.3895 26.2784 36.2003C26.2043 36.0112 26.1688 35.8091 26.174 35.606V20.389Z" fill="white"/>
<path d="M35.609 26.172C35.8121 26.1668 36.0141 26.2023 36.2033 26.2764C36.3924 26.3505 36.5648 26.4618 36.7103 26.6036C36.8558 26.7454 36.9714 26.9149 37.0504 27.1021C37.1293 27.2893 37.17 27.4904 37.17 27.6935C37.17 27.8967 37.1293 28.0978 37.0504 28.285C36.9714 28.4721 36.8558 28.6416 36.7103 28.7834C36.5648 28.9252 36.3924 29.0365 36.2033 29.1106C36.0141 29.1847 35.8121 29.2202 35.609 29.215H20.39C19.9932 29.2048 19.6161 29.0401 19.3391 28.7558C19.062 28.4716 18.907 28.0904 18.907 27.6935C18.907 27.2966 19.062 26.9154 19.3391 26.6312C19.6161 26.3469 19.9932 26.1822 20.39 26.172H35.609Z" fill="white"/>
</g>
<defs>
<clipPath id="clip0_13_2260">
<rect width="56" height="56" fill="white"/>
</clipPath>
</defs>
</svg>
