<svg width="550" height="169" viewBox="0 0 550 169" fill="none" xmlns="http://www.w3.org/2000/svg">
<g clip-path="url(#clip0_1_66)">
<path fill-rule="evenodd" clip-rule="evenodd" d="M498.7 64.8C488.7 64.8 481 68.6 475.7 76C470.3 83.5 467.7 94.5 467.7 108.9C467.7 123.2 470.4 134 475.7 141.3C481 148.6 488.7 152.2 498.7 152.2C508.8 152.2 516.6 148.6 521.9 141.3C527.2 134 529.9 123.2 529.9 108.9C529.9 94.5 527.2 83.5 521.9 76C516.6 68.5 508.8 64.8 498.7 64.8ZM498.7 49.4C514.5 49.4 527 54.5 536 64.8C545 75.1 549.5 89.8 549.5 109C549.5 127.9 545 142.4 536.1 152.5C527.1 162.6 514.7 167.7 498.7 167.7C482.9 167.7 470.4 162.6 461.4 152.5C452.4 142.4 447.9 127.9 447.9 109C447.9 89.8 452.4 75.1 461.5 64.8C470.6 54.5 483 49.4 498.7 49.4Z" fill="black"/>
<path fill-rule="evenodd" clip-rule="evenodd" d="M144.1 151.6C146.7 151.6 149.4 151.2 152.3 150.6C155.1 149.9 158 149 160.8 147.9C163.6 146.8 166.3 145.4 168.8 143.8C171.3 142.2 173.5 140.5 175.4 138.7V112H155.5C145.4 112 138.1 113.7 133.4 117.2C128.8 120.7 126.4 126.2 126.4 133.7C126.5 145.6 132.4 151.6 144.1 151.6ZM108.2 134.5C108.2 123 112 114.2 119.8 108.2C127.5 102.2 138.7 99.1 153.4 99.1H175.5V91.8C175.5 74.2 167.7 65.4 152.2 65.4C147.2 65.4 142 66.1 136.5 67.5C131 68.9 126 70.6 121.4 72.7L115.8 59.2C121.5 56 127.6 53.5 134.2 51.8C140.8 50.1 147.2 49.2 153.5 49.2C180.4 49.2 193.9 63.6 193.9 92.3V165.2H179.8L177.5 152.7C171.8 157.3 165.7 160.8 159.3 163.3C152.8 165.8 146.7 167 140.9 167C130.8 167 122.8 164.1 117.1 158.4C111.1 152.6 108.2 144.7 108.2 134.5Z" fill="black"/>
<path fill-rule="evenodd" clip-rule="evenodd" d="M298.2 48.3L313.2 59.1L276.4 105.3L319.1 156.5L304.3 168L253.9 106.3L298.2 48.3ZM247 165.1H227.8V4.2L247 0V165.1Z" fill="black"/>
<path fill-rule="evenodd" clip-rule="evenodd" d="M372 151.6C374.6 151.6 377.4 151.2 380.2 150.6C383 149.9 385.9 149 388.7 147.9C391.5 146.8 394.2 145.4 396.7 143.8C399.2 142.2 401.4 140.5 403.3 138.7V112H383.4C373.3 112 365.9 113.7 361.3 117.2C356.7 120.7 354.4 126.2 354.4 133.7C354.4 145.6 360.2 151.6 372 151.6ZM336 134.5C336 123 339.9 114.2 347.6 108.2C355.3 102.2 366.5 99.1 381.2 99.1H403.3V91.8C403.3 74.2 395.5 65.4 380 65.4C375 65.4 369.8 66.1 364.3 67.5C358.8 68.9 353.8 70.6 349.2 72.7L343.6 59.2C349.3 56 355.4 53.5 362 51.8C368.6 50.1 375 49.2 381.3 49.2C408.2 49.2 421.7 63.6 421.7 92.3V165.2H407.5L405.2 152.7C399.5 157.3 393.4 160.8 387 163.3C380.6 165.8 374.4 167 368.6 167C358.5 167 350.5 164.1 344.8 158.4C338.9 152.6 336 144.7 336 134.5Z" fill="black"/>
<path fill-rule="evenodd" clip-rule="evenodd" d="M19.2 0L0 4.2V165.2H19.2V0ZM26 106.4L76.4 168L91.2 156.5L48.5 105.3L85.4 59.1L70.4 48.3L26 106.4Z" fill="black"/>
</g>
<defs>
<clipPath id="clip0_1_66">
<rect width="549.5" height="168.1" fill="white"/>
</clipPath>
</defs>
</svg>
