<svg width="272" height="272" viewBox="0 0 272 272" fill="none" xmlns="http://www.w3.org/2000/svg">
<rect width="272" height="272" rx="30" fill="#FAE100"/>
<g clip-path="url(#clip0_211_2)">
<path d="M79.5613 84.1193H81.0311V100.127H79.5613V84.1193ZM74.8688 85.8369H76.3208C76.3208 90.4763 74.2313 94.5314 68.8836 97.1522L68.1044 95.9657C72.7261 93.7346 74.8688 90.3347 74.8688 86.0848V85.8369ZM68.8304 85.8369H75.5063V87.041H68.8304V85.8369ZM83.9163 93.5929H98.4366V94.797H83.9163V93.5929ZM90.3973 94.1595H91.8493V100.127H90.3973V94.1595ZM85.7402 84.7567H87.2099V86.9525H95.1253V84.7567H96.5773V91.6805H85.7402V84.7567ZM87.2099 88.1389V90.494H95.1253V88.1389H87.2099ZM106.439 90.3347H109.467V91.5565H106.439V90.3347ZM112.141 84.1193H113.558V100.127H112.141V84.1193ZM108.972 84.4557H110.37V99.3302H108.972V84.4557ZM103.553 85.4473C105.625 85.4473 106.971 87.59 106.971 91.0253C106.971 94.4606 105.625 96.6032 103.553 96.6032C101.481 96.6032 100.153 94.4606 100.153 91.0253C100.153 87.59 101.481 85.4473 103.553 85.4473ZM103.553 86.8108C102.296 86.8108 101.499 88.4399 101.499 91.0253C101.499 93.6106 102.296 95.2397 103.553 95.2397C104.828 95.2397 105.625 93.6106 105.625 91.0253C105.625 88.4399 104.828 86.8108 103.553 86.8108ZM131.641 84.1193H133.111V93.7523H131.641V84.1193ZM132.703 88.3691H135.483V89.5909H132.703V88.3691ZM123.053 94.6554H133.111V99.9146H123.053V94.6554ZM131.676 95.8418H124.487V98.7281H131.676V95.8418ZM120.733 85.8015H130.189V87.0056H120.733V85.8015ZM125.461 87.7848C127.745 87.7848 129.286 88.9181 129.286 90.6534C129.286 92.3888 127.745 93.4866 125.461 93.4866C123.159 93.4866 121.618 92.3888 121.618 90.6534C121.618 88.9181 123.159 87.7848 125.461 87.7848ZM125.461 88.9181C123.991 88.9181 123.017 89.5909 123.017 90.6534C123.017 91.6982 123.991 92.3711 125.461 92.3711C126.895 92.3711 127.887 91.6982 127.887 90.6534C127.887 89.5909 126.895 88.9181 125.461 88.9181ZM124.717 83.9776H126.187V86.4213H124.717V83.9776ZM139.396 86.0317H140.635C140.635 89.467 140.175 93.2387 137.891 96.3553L136.74 95.6824C138.935 92.8315 139.396 89.4847 139.396 86.1379V86.0317ZM137.076 86.0317H140.122V87.2535H137.076V86.0317ZM142.92 86.0317H144.177C144.177 89.4139 143.964 93.9116 141.45 97.3824L140.281 96.7095C142.725 93.5221 142.92 89.3607 142.92 86.1556V86.0317ZM141.167 86.0317H143.699V87.2535H141.167V86.0317ZM148.958 84.1193H150.375V100.127H148.958V84.1193ZM143.433 90.4055H146.302V91.6096H143.433V90.4055ZM146.001 84.5265H147.382V99.3125H146.001V84.5265ZM157.426 86.8462H165.359V88.0504H157.426V86.8462ZM161.392 89.1128C163.393 89.1128 164.845 90.618 164.845 92.7783C164.845 94.921 163.393 96.4261 161.392 96.4261C159.409 96.4261 157.957 94.921 157.957 92.7783C157.957 90.618 159.409 89.1128 161.392 89.1128ZM161.392 90.3701C160.17 90.3701 159.285 91.3617 159.285 92.7783C159.285 94.195 160.17 95.1866 161.392 95.1866C162.632 95.1866 163.535 94.195 163.535 92.7783C163.535 91.3617 162.632 90.3701 161.392 90.3701ZM169.591 84.1193H171.008V100.127H169.591V84.1193ZM167.041 90.8482H170.069V92.07H167.041V90.8482ZM166.173 84.4734H167.554V99.3479H166.173V84.4734ZM160.684 84.5797H162.136V87.59H160.684V84.5797ZM179.896 85.6952H181.171V86.3681C181.171 89.2368 178.125 91.344 174.902 91.893L174.335 90.7242C177.151 90.317 179.896 88.4754 179.896 86.3681V85.6952ZM180.267 85.6952H181.525V86.3681C181.525 88.4754 184.287 90.317 187.085 90.7242L186.536 91.893C183.296 91.344 180.267 89.2368 180.267 86.3681V85.6952ZM179.949 94.0179H181.401V100.127H179.949V94.0179ZM173.485 93.2387H187.953V94.4429H173.485V93.2387ZM174.831 85.1109H186.554V86.2973H174.831V85.1109ZM201.144 84.137H202.631V95.8595H201.144V84.137ZM192.343 98.5688H203.109V99.7729H192.343V98.5688ZM192.343 94.7793H193.795V99.1354H192.343V94.7793ZM193.671 85.0046H194.893V86.6338C194.893 89.7503 193.122 92.4773 190.431 93.5752L189.669 92.3888C192.077 91.4503 193.671 89.1128 193.671 86.6338V85.0046ZM193.937 85.0046H195.141V86.6338C195.141 89.042 196.752 91.2201 199.143 92.0877L198.364 93.2742C195.707 92.2471 193.937 89.6795 193.937 86.6338V85.0046ZM98.2878 112.917H99.492V113.59C99.492 116.388 97.7035 118.654 95.0296 119.557L94.3213 118.406C96.6941 117.663 98.2878 115.75 98.2878 113.59V112.917ZM98.5534 112.917H99.7576V113.59C99.7576 115.573 101.316 117.397 103.653 118.105L102.945 119.256C100.289 118.406 98.5534 116.211 98.5534 113.59V112.917ZM94.7463 112.085H103.281V113.271H94.7463V112.085ZM98.2878 110.048H99.7576V112.669H98.2878V110.048ZM105.247 110.119H106.717V119.876H105.247V110.119ZM106.309 114.387H109.09V115.609H106.309V114.387ZM96.3223 120.726H106.717V126.145H105.247V121.93H96.3223V120.726ZM121.271 110.137H122.741V122.143H121.271V110.137ZM122.281 115.378H125.114V116.618H122.281V115.378ZM110.363 112.067H119.819V113.254H110.363V112.067ZM115.091 114.139C117.358 114.139 118.916 115.325 118.916 117.132C118.916 118.92 117.358 120.106 115.091 120.106C112.807 120.106 111.249 118.92 111.249 117.132C111.249 115.325 112.807 114.139 115.091 114.139ZM115.091 115.29C113.639 115.29 112.648 116.016 112.648 117.132C112.648 118.229 113.639 118.955 115.091 118.955C116.526 118.955 117.517 118.229 117.517 117.132C117.517 116.016 116.526 115.29 115.091 115.29ZM114.348 110.119H115.817V112.687H114.348V110.119ZM112.772 124.569H123.467V125.773H112.772V124.569ZM112.772 121.187H114.241V125.082H112.772V121.187ZM131.687 111.713H139.036V122.072H131.687V111.713ZM137.601 112.899H133.121V120.886H137.601V112.899ZM141.887 110.119H143.374V126.127H141.887V110.119ZM143.02 116.512H145.995V117.751H143.02V116.512ZM154.316 110.473C157.769 110.473 159.947 111.607 159.947 113.501C159.947 115.396 157.769 116.512 154.316 116.512C150.846 116.512 148.685 115.396 148.685 113.501C148.685 111.607 150.846 110.473 154.316 110.473ZM154.316 111.642C151.766 111.642 150.19 112.315 150.19 113.501C150.19 114.67 151.766 115.361 154.316 115.361C156.848 115.361 158.442 114.67 158.442 113.501C158.442 112.315 156.848 111.642 154.316 111.642ZM148.845 120.638H159.77V125.915H148.845V120.638ZM158.336 121.824H150.297V124.728H158.336V121.824ZM147.074 117.893H161.541V119.079H147.074V117.893ZM163.116 116.795H177.583V117.999H163.116V116.795ZM165.028 114.316H175.865V115.502H165.028V114.316ZM165.028 110.633H175.688V111.837H166.48V115.272H165.028V110.633ZM164.851 119.38H175.724V123.152H166.339V125.171H164.887V122.054H174.272V120.531H164.851V119.38ZM164.887 124.781H176.202V125.95H164.887V124.781Z" fill="black"/>
</g>
<path d="M40.0333 179.334C38.3452 179.334 36.8401 179.024 35.5183 178.403C34.2044 177.782 33.1612 176.926 32.3888 175.835C31.6164 174.744 31.2142 173.494 31.1824 172.084H36.1991C36.2549 173.032 36.653 173.8 37.3936 174.389C38.1341 174.979 39.0141 175.273 40.0333 175.273C40.8456 175.273 41.5623 175.094 42.1834 174.736C42.8125 174.369 43.3022 173.864 43.6526 173.219C44.0109 172.566 44.1901 171.817 44.1901 170.973C44.1901 170.113 44.0069 169.357 43.6406 168.704C43.2823 168.051 42.7846 167.541 42.1475 167.175C41.5105 166.809 40.7819 166.621 39.9617 166.613C39.245 166.613 38.5482 166.761 37.8714 167.055C37.2025 167.35 36.6809 167.752 36.3066 168.262L31.7079 167.438L32.8666 154.537H47.8212V158.766H37.1308L36.4977 164.893H36.6411C37.0711 164.288 37.7201 163.787 38.588 163.388C39.456 162.99 40.4275 162.791 41.5025 162.791C42.9757 162.791 44.2896 163.138 45.4443 163.83C46.5989 164.523 47.5107 165.475 48.1796 166.685C48.8485 167.888 49.1789 169.273 49.171 170.842C49.1789 172.49 48.7967 173.955 48.0243 175.237C47.2598 176.512 46.1888 177.515 44.8112 178.247C43.4415 178.972 41.8489 179.334 40.0333 179.334ZM60.9824 154.203C62.2405 154.203 63.4509 154.414 64.6135 154.836C65.7841 155.258 66.8273 155.931 67.743 156.855C68.6667 157.778 69.3953 159.005 69.9289 160.534C70.4704 162.055 70.7451 163.922 70.753 166.136C70.753 168.214 70.5181 170.069 70.0483 171.702C69.5865 173.326 68.9215 174.708 68.0536 175.847C67.1856 176.985 66.1384 177.853 64.9121 178.451C63.6858 179.04 62.3162 179.334 60.8032 179.334C59.1708 179.334 57.7294 179.02 56.4792 178.391C55.229 177.754 54.2217 176.89 53.4572 175.799C52.7008 174.7 52.2429 173.466 52.0836 172.096H57.184C57.383 172.988 57.8011 173.681 58.4382 174.174C59.0752 174.66 59.8635 174.903 60.8032 174.903C62.3958 174.903 63.6062 174.21 64.4343 172.825C65.2625 171.431 65.6806 169.524 65.6885 167.103H65.5213C65.155 167.82 64.6613 168.437 64.0402 168.955C63.4191 169.464 62.7064 169.858 61.9021 170.137C61.1058 170.416 60.2577 170.555 59.3579 170.555C57.9166 170.555 56.6305 170.217 55.4998 169.54C54.369 168.863 53.4772 167.931 52.8242 166.745C52.1712 165.558 51.8447 164.205 51.8447 162.684C51.8368 161.043 52.215 159.582 52.9795 158.3C53.7439 157.018 54.811 156.015 56.1806 155.29C57.5582 154.557 59.1588 154.195 60.9824 154.203ZM61.0182 158.264C60.2139 158.264 59.4972 158.455 58.8682 158.837C58.247 159.22 57.7533 159.733 57.387 160.378C57.0287 161.023 56.8535 161.744 56.8615 162.54C56.8615 163.345 57.0367 164.069 57.387 164.714C57.7454 165.351 58.2311 165.861 58.8443 166.243C59.4654 166.617 60.1741 166.805 60.9704 166.805C61.5676 166.805 62.1211 166.693 62.6307 166.47C63.1403 166.247 63.5823 165.941 63.9566 165.55C64.3388 165.152 64.6374 164.694 64.8524 164.177C65.0674 163.659 65.1749 163.11 65.1749 162.528C65.167 161.756 64.9838 161.047 64.6255 160.402C64.2671 159.757 63.7734 159.24 63.1443 158.849C62.5152 158.459 61.8065 158.264 61.0182 158.264ZM78.2823 175.656L78.1509 176.969C78.0474 178.021 77.8483 179.068 77.5537 180.111C77.267 181.162 76.9644 182.114 76.6459 182.966C76.3353 183.818 76.0845 184.487 75.8934 184.972H72.5967C72.7161 184.502 72.8793 183.846 73.0864 183.001C73.2934 182.165 73.4885 181.226 73.6717 180.183C73.8548 179.139 73.9703 178.076 74.0181 176.993L74.0778 175.656H78.2823ZM81.8698 174.7V170.627L92.0825 154.537H95.5942V160.175H93.5158L87.0777 170.364V170.555H101.59V174.7H81.8698ZM93.6114 179V173.458L93.7069 171.654V154.537H98.5564V179H93.6114ZM113.24 154.203C114.499 154.203 115.709 154.414 116.872 154.836C118.042 155.258 119.085 155.931 120.001 156.855C120.925 157.778 121.653 159.005 122.187 160.534C122.728 162.055 123.003 163.922 123.011 166.136C123.011 168.214 122.776 170.069 122.306 171.702C121.845 173.326 121.18 174.708 120.312 175.847C119.444 176.985 118.397 177.853 117.17 178.451C115.944 179.04 114.574 179.334 113.061 179.334C111.429 179.334 109.988 179.02 108.737 178.391C107.487 177.754 106.48 176.89 105.715 175.799C104.959 174.7 104.501 173.466 104.342 172.096H109.442C109.641 172.988 110.059 173.681 110.696 174.174C111.333 174.66 112.122 174.903 113.061 174.903C114.654 174.903 115.864 174.21 116.692 172.825C117.521 171.431 117.939 169.524 117.947 167.103H117.779C117.413 167.82 116.919 168.437 116.298 168.955C115.677 169.464 114.965 169.858 114.16 170.137C113.364 170.416 112.516 170.555 111.616 170.555C110.175 170.555 108.889 170.217 107.758 169.54C106.627 168.863 105.735 167.931 105.082 166.745C104.429 165.558 104.103 164.205 104.103 162.684C104.095 161.043 104.473 159.582 105.238 158.3C106.002 157.018 107.069 156.015 108.439 155.29C109.816 154.557 111.417 154.195 113.24 154.203ZM113.276 158.264C112.472 158.264 111.755 158.455 111.126 158.837C110.505 159.22 110.011 159.733 109.645 160.378C109.287 161.023 109.112 161.744 109.12 162.54C109.12 163.345 109.295 164.069 109.645 164.714C110.004 165.351 110.489 165.861 111.102 166.243C111.724 166.617 112.432 166.805 113.229 166.805C113.826 166.805 114.379 166.693 114.889 166.47C115.398 166.247 115.84 165.941 116.215 165.55C116.597 165.152 116.896 164.694 117.111 164.177C117.326 163.659 117.433 163.11 117.433 162.528C117.425 161.756 117.242 161.047 116.884 160.402C116.525 159.757 116.032 159.24 115.402 158.849C114.773 158.459 114.065 158.264 113.276 158.264ZM125.948 179V175.273L134.655 167.211C135.396 166.494 136.017 165.849 136.519 165.276C137.028 164.702 137.415 164.141 137.677 163.591C137.94 163.034 138.072 162.433 138.072 161.788C138.072 161.071 137.908 160.454 137.582 159.936C137.255 159.411 136.809 159.009 136.244 158.73C135.679 158.443 135.038 158.3 134.321 158.3C133.572 158.3 132.919 158.451 132.362 158.754C131.805 159.056 131.375 159.49 131.072 160.056C130.769 160.621 130.618 161.294 130.618 162.074H125.709C125.709 160.474 126.071 159.084 126.796 157.906C127.52 156.727 128.536 155.816 129.842 155.17C131.148 154.525 132.653 154.203 134.357 154.203C136.109 154.203 137.634 154.514 138.932 155.135C140.237 155.748 141.253 156.6 141.977 157.691C142.702 158.782 143.064 160.032 143.064 161.441C143.064 162.365 142.881 163.277 142.515 164.177C142.157 165.077 141.516 166.076 140.592 167.175C139.668 168.266 138.366 169.576 136.686 171.105L133.114 174.604V174.772H143.387V179H125.948ZM152.066 175.656L151.934 176.969C151.831 178.021 151.632 179.068 151.337 180.111C151.05 181.162 150.748 182.114 150.429 182.966C150.119 183.818 149.868 184.487 149.677 184.972H146.38C146.5 184.502 146.663 183.846 146.87 183.001C147.077 182.165 147.272 181.226 147.455 180.183C147.638 179.139 147.754 178.076 147.802 176.993L147.861 175.656H152.066ZM164.164 179.334C162.324 179.334 160.688 179.036 159.255 178.439C157.829 177.833 156.71 177.009 155.898 175.966C155.086 174.923 154.68 173.74 154.68 172.419C154.68 171.399 154.911 170.464 155.373 169.612C155.842 168.752 156.479 168.039 157.284 167.473C158.088 166.9 158.988 166.534 159.983 166.375V166.207C158.677 165.945 157.618 165.311 156.806 164.308C155.994 163.297 155.588 162.122 155.588 160.784C155.588 159.518 155.958 158.392 156.698 157.404C157.439 156.409 158.454 155.628 159.744 155.063C161.042 154.49 162.515 154.203 164.164 154.203C165.812 154.203 167.281 154.49 168.571 155.063C169.869 155.636 170.889 156.421 171.629 157.416C172.37 158.404 172.744 159.526 172.752 160.784C172.744 162.13 172.33 163.305 171.51 164.308C170.69 165.311 169.638 165.945 168.356 166.207V166.375C169.336 166.534 170.224 166.9 171.02 167.473C171.824 168.039 172.461 168.752 172.931 169.612C173.409 170.464 173.652 171.399 173.66 172.419C173.652 173.74 173.242 174.923 172.429 175.966C171.617 177.009 170.494 177.833 169.061 178.439C167.636 179.036 166.003 179.334 164.164 179.334ZM164.164 175.536C164.984 175.536 165.701 175.389 166.314 175.094C166.927 174.792 167.405 174.377 167.747 173.852C168.098 173.318 168.273 172.705 168.273 172.012C168.273 171.304 168.094 170.679 167.735 170.137C167.377 169.588 166.891 169.158 166.278 168.847C165.665 168.529 164.96 168.369 164.164 168.369C163.375 168.369 162.671 168.529 162.05 168.847C161.429 169.158 160.939 169.588 160.58 170.137C160.23 170.679 160.055 171.304 160.055 172.012C160.055 172.705 160.226 173.318 160.568 173.852C160.911 174.377 161.393 174.792 162.014 175.094C162.635 175.389 163.352 175.536 164.164 175.536ZM164.164 164.607C164.849 164.607 165.458 164.467 165.991 164.189C166.525 163.91 166.943 163.524 167.246 163.03C167.548 162.536 167.699 161.967 167.699 161.322C167.699 160.685 167.548 160.128 167.246 159.65C166.943 159.164 166.529 158.786 166.003 158.515C165.478 158.236 164.865 158.097 164.164 158.097C163.471 158.097 162.858 158.236 162.324 158.515C161.791 158.786 161.373 159.164 161.07 159.65C160.776 160.128 160.628 160.685 160.628 161.322C160.628 161.967 160.78 162.536 161.082 163.03C161.385 163.524 161.803 163.91 162.336 164.189C162.87 164.467 163.479 164.607 164.164 164.607ZM185.564 179.334C183.876 179.334 182.371 179.024 181.049 178.403C179.735 177.782 178.692 176.926 177.919 175.835C177.147 174.744 176.745 173.494 176.713 172.084H181.73C181.785 173.032 182.183 173.8 182.924 174.389C183.665 174.979 184.544 175.273 185.564 175.273C186.376 175.273 187.093 175.094 187.714 174.736C188.343 174.369 188.833 173.864 189.183 173.219C189.541 172.566 189.72 171.817 189.72 170.973C189.72 170.113 189.537 169.357 189.171 168.704C188.813 168.051 188.315 167.541 187.678 167.175C187.041 166.809 186.312 166.621 185.492 166.613C184.775 166.613 184.079 166.761 183.402 167.055C182.733 167.35 182.211 167.752 181.837 168.262L177.238 167.438L178.397 154.537H193.352V158.766H182.661L182.028 164.893H182.171C182.601 164.288 183.25 163.787 184.118 163.388C184.986 162.99 185.958 162.791 187.033 162.791C188.506 162.791 189.82 163.138 190.975 163.83C192.129 164.523 193.041 165.475 193.71 166.685C194.379 167.888 194.709 169.273 194.701 170.842C194.709 172.49 194.327 173.955 193.555 175.237C192.79 176.512 191.719 177.515 190.342 178.247C188.972 178.972 187.379 179.334 185.564 179.334ZM207.05 179.334C205.792 179.326 204.578 179.115 203.407 178.701C202.245 178.287 201.201 177.614 200.278 176.683C199.354 175.751 198.621 174.517 198.08 172.98C197.546 171.443 197.28 169.556 197.28 167.318C197.288 165.264 197.522 163.428 197.984 161.812C198.454 160.187 199.123 158.81 199.991 157.679C200.867 156.548 201.914 155.688 203.132 155.099C204.351 154.502 205.716 154.203 207.229 154.203C208.862 154.203 210.303 154.522 211.553 155.159C212.804 155.788 213.807 156.644 214.563 157.727C215.328 158.81 215.79 160.024 215.949 161.37H210.849C210.65 160.518 210.232 159.849 209.594 159.363C208.957 158.877 208.169 158.634 207.229 158.634C205.637 158.634 204.426 159.327 203.598 160.713C202.778 162.098 202.36 163.982 202.344 166.363H202.511C202.878 165.638 203.371 165.021 203.992 164.511C204.622 163.994 205.334 163.599 206.131 163.329C206.935 163.05 207.783 162.911 208.675 162.911C210.124 162.911 211.414 163.253 212.545 163.938C213.676 164.615 214.567 165.546 215.22 166.733C215.873 167.919 216.2 169.277 216.2 170.806C216.2 172.462 215.814 173.935 215.041 175.226C214.277 176.516 213.206 177.527 211.828 178.259C210.458 178.984 208.866 179.342 207.05 179.334ZM207.026 175.273C207.823 175.273 208.535 175.082 209.164 174.7C209.794 174.318 210.287 173.8 210.646 173.147C211.004 172.494 211.183 171.762 211.183 170.949C211.183 170.137 211.004 169.408 210.646 168.763C210.295 168.118 209.809 167.605 209.188 167.223C208.567 166.84 207.859 166.649 207.062 166.649C206.465 166.649 205.912 166.761 205.402 166.984C204.9 167.207 204.458 167.517 204.076 167.915C203.702 168.314 203.407 168.775 203.192 169.301C202.977 169.819 202.87 170.372 202.87 170.961C202.87 171.75 203.049 172.47 203.407 173.123C203.773 173.776 204.267 174.298 204.888 174.688C205.517 175.078 206.23 175.273 207.026 175.273Z" fill="black"/>
<path d="M238.78 164.435H240.283V176.533H238.78V164.435ZM235.248 169.488H239.069V170.737H235.248V169.488ZM233.726 165.702H235.302C235.302 169.922 232.332 173.128 227.713 174.668L227.061 173.454C231.064 172.114 233.726 169.542 233.726 166.3V165.702ZM227.876 165.702H234.704V166.934H227.876V165.702ZM229.941 179.214H240.699V180.445H229.941V179.214ZM229.941 175.32H231.444V179.829H229.941V175.32Z" fill="black"/>
<defs>
<clipPath id="clip0_211_2">
<rect width="209.673" height="52.75" fill="white" transform="translate(31 80)"/>
</clipPath>
</defs>
</svg>
